<svg width="64" height="61" fill="none" xmlns="http://www.w3.org/2000/svg"><g clip-path="url(#clip0)" filter="url(#filter0_d)" fill="#fff"><path d="M9.316 41.322c.396.682.85 1.331 1.36 1.94a9.226 9.226 0 002.243 2.024c.29.218.636.356 1.001.4.39 0 .384-.513 0-1.499a5.263 5.263 0 00-.982-1.582 13.5 13.5 0 00-1.811-1.57l-1.342-1.033a20.735 20.735 0 01-2.942-2.573 11 11 0 01-2.522-4.64c-.457-1.755-.265-3.122.47-4.071.736-.95 2.003-1.194 3.634-.597a7.063 7.063 0 013.493 3.105 14.64 14.64 0 011.891 5.683c-.995-.376-1.483-.597-2.472-.967a6.26 6.26 0 00-1.335-3.045c-.43-.5-.982-.888-1.607-1.128a1.493 1.493 0 00-1.558.042c-.346.292-.451.83-.29 1.612.137.684.464 1.32.945 1.839a13.51 13.51 0 001.762 1.492l2.256 1.696a12.17 12.17 0 012.38 2.269 13.946 13.946 0 012.064 4.179c.531 1.606.68 2.68.513 3.272-.167.59-.692.52-1.718-.215a29.18 29.18 0 01-3.542-3.176 28.048 28.048 0 01-3.832-4.592c.76.448 1.15.675 1.94 1.135zm15.891-6.944a40.9 40.9 0 003.944.794c.092 5.917.173 11.84.401 17.75a25.959 25.959 0 01-2.052-.215c-.439-3.779-.618-6.191-.785-11.445 0-.382 0-.913-.037-1.606-.037-.693 0-1.248 0-1.63-.865 6.621-1.236 9.732-1.082 14.33a25.307 25.307 0 01-2.04-.502c-2.064-5.07-3.183-8.484-4.419-15.834 0 .394.044.961.093 1.683.05.723.099 1.272.136 1.666.476 5.428.995 7.935 2.367 11.905a25.709 25.709 0 01-1.854-.716c-2.646-6.072-2.967-12.347-3.32-18.813 1.57.555 2.35.824 3.926 1.314a79.813 79.813 0 003.443 15.797c-.038-4.95.37-8.12 1.28-14.478zm9.197 18.509c-.877.077-1.316.101-2.212.113.346-5.815.278-11.618.21-17.44a30.57 30.57 0 002.769.108c.037 5.767.093 11.499-.767 17.219zm4.321-17.422a24.6 24.6 0 002.825-.454c.315 6.466-.13 9.768-1.46 14.544a29.221 29.221 0 005.384-1.791 18.89 18.89 0 01-1.39 2.555 24.803 24.803 0 01-6.917 2.221c1.54-5.642 1.527-11.314 1.558-17.075zm20.811-5.715a35.104 35.104 0 01-6.008 4.18 25.009 25.009 0 01-.735 4.18 34.507 34.507 0 005.303-3.583 22.551 22.551 0 01-1.323 3.404 31.937 31.937 0 01-4.994 3.379 22.148 22.148 0 01-2.114 4.322 27.691 27.691 0 004.945-3.582 25.143 25.143 0 01-8.58 7.314c4.05-5.373 4.575-11.38 5.106-17.762a33.99 33.99 0 008.654-5.744 21.054 21.054 0 01-.254 3.893zM10.96 19.62a4.765 4.765 0 00.457 2.83c.798 1.522 2.43 2.687 4.822 3.296a4.923 4.923 0 003.832-.394c1.106-.663 1.662-1.893 1.712-3.583.056-2.239-.878-3.82-2.77-4.675a14.89 14.89 0 00-5.08-.877 61.01 61.01 0 01.668-3.84c2.138-.178 3.708-.387 4.623-.764 1.576-.626 2.472-1.886 2.67-3.671.098-.46.086-.936-.037-1.39a3.034 3.034 0 00-.668-1.231c-.593-.57-1.495-.689-2.707-.359a7.277 7.277 0 00-3.356 1.989 7.226 7.226 0 00-1.854 3.074 37.12 37.12 0 00-5.49 1.457 19 19 0 012.331-2.884c.866-.919 1.972-1.958 3.214-3.116.909-.848 1.855-1.69 2.893-2.478A17.076 17.076 0 0119.811.82c2.596-1.152 4.729-1.063 6.422.179 1.694 1.242 2.633 3.391 2.54 6.168a7.183 7.183 0 01-2.07 4.979 6.339 6.339 0 01-2.602 1.654c.655.03 1.57.597 2.8 1.72 1.854 1.725 2.806 4.083 2.812 7.038a9.794 9.794 0 01-.815 4.239 10.106 10.106 0 01-2.572 3.523c-2.256 1.94-5.563 2.126-9.976.561-5.433-1.934-9.309-4.716-11.194-7.355a5.71 5.71 0 01-1.01-2.158A5.61 5.61 0 014.111 19c2.69.108 4.061.275 6.849.621zm24.619 6.889c1.118-2.388 3.708-5.135 7.485-7.959 3.288-2.454 5.075-3.886 5.822-4.687 1.138-1.241 1.422-2.388 1.014-3.701a6.848 6.848 0 00-1.891-2.884 7.269 7.269 0 00-3.326-1.905c-1.823-.465-3.016 0-3.56 1.284-.315.752-.42 2.036-.328 3.875-2.707-.167-4.079-.263-6.867-.406.062-2.926.57-5.194 1.416-6.818C36.95.215 39.627-.842 43.28.74c2.887 1.26 5.192 3.421 7.417 5.44 2.226 2.017 3.987 3.48 5.032 5.104.81 1.254.81 2.335-.1 3.726-.617.92-1.853 2.167-3.924 3.94l-2.584 2.21c-1.706 1.432-2.985 2.543-3.708 3.23a10.507 10.507 0 00-1.743 2.262c7.009-1.385 10.396-2.579 15.897-5.88.24 1.18.385 2.378.433 3.582-7.176 6.24-16.508 9.665-26.164 9.6.049-2.57.642-5.104 1.743-7.445z"/></g><defs><clipPath id="clip0"><path fill="#fff" transform="translate(4)" d="M0 0h56v53H0z"/></clipPath><filter id="filter0_d" x="0" y="0" width="64" height="61" filterUnits="userSpaceOnUse" color-interpolation-filters="sRGB"><feFlood flood-opacity="0" result="BackgroundImageFix"/><feColorMatrix in="SourceAlpha" values="0 0 0 0 0 0 0 0 0 0 0 0 0 0 0 0 0 0 127 0"/><feOffset dy="4"/><feGaussianBlur stdDeviation="2"/><feColorMatrix values="0 0 0 0 0 0 0 0 0 0 0 0 0 0 0 0 0 0 0.15 0"/><feBlend in2="BackgroundImageFix" result="effect1_dropShadow"/><feBlend in="SourceGraphic" in2="effect1_dropShadow" result="shape"/></filter></defs></svg>