<svg width="79" height="38" fill="none" xmlns="http://www.w3.org/2000/svg"><path d="M52.39 10.978c.665-.416 1.455-.624 2.411-.624.416 0 .832.042 1.247.083.458.084.832.208 1.206.375l.042-.998a7.854 7.854 0 00-.749-.25 3.776 3.776 0 00-.956-.125c-.333-.041-.582-.041-.831-.041-1.123 0-2.121.25-2.953.748-.831.458-1.455 1.123-1.912 1.996-.458.832-.666 1.83-.666 2.952 0 1.746.5 3.119 1.497 4.117.957 1.039 2.329 1.538 4.075 1.58.374 0 .79-.042 1.289-.084.499-.083.915-.207 1.247-.374l-.083-.956c-.332.208-.707.332-1.206.374-.457.083-.873.083-1.247.083-1.455 0-2.578-.457-3.326-1.33-.749-.873-1.123-1.996-1.123-3.41 0-.914.166-1.746.54-2.453.333-.707.832-1.289 1.497-1.663zm18.627 1.372c-.54 0-.956.208-1.29.54-.332.333-.623.707-.79 1.206h-.04v-1.538h-.999c.042.25.042.54.084.79v7.235h.998V16.59c0-.499.041-.998.166-1.497.124-.499.332-.914.623-1.247.291-.333.707-.5 1.206-.5h.375c.124 0 .249.043.332.084v-.998c-.083-.041-.208-.041-.332-.083h-.333zm-5.364 6.528v-3.534c0-1.04-.208-1.788-.665-2.287-.457-.458-1.164-.707-2.162-.707-.374 0-.79.083-1.206.166-.457.125-.832.25-1.164.374v.957c.374-.25.748-.416 1.164-.5.374-.124.79-.165 1.206-.165.665 0 1.122.166 1.414.54.29.333.415.832.415 1.539v.415h-.208c-.707 0-1.455.042-2.203.125-.749.125-1.414.374-1.913.79-.54.374-.79 1.04-.832 1.913 0 .25.042.582.167.914.125.333.374.666.79.915.374.25.956.416 1.704.416.541 0 .998-.125 1.497-.374.458-.25.832-.624 1.081-1.123h.042v1.289h.956a5.09 5.09 0 01-.083-.79v-.873zm-1.08-.749c-.084.458-.292.832-.625 1.206-.332.333-.914.54-1.663.54-.457 0-.873-.124-1.164-.332-.333-.208-.457-.582-.499-1.122 0-.583.208-.998.582-1.29a3.548 3.548 0 011.456-.54 12.342 12.342 0 011.746-.125h.29v.54c-.04.333-.082.708-.124 1.123zM79 16.342c0-.707-.125-1.373-.333-1.996a2.863 2.863 0 00-1.04-1.456c-.456-.374-1.08-.54-1.829-.54-1.039 0-1.829.416-2.453 1.164-.582.79-.915 1.788-.915 3.035 0 1.248.25 2.246.832 2.994.582.79 1.497 1.164 2.828 1.206.374 0 .79-.042 1.164-.125.415-.083.79-.208 1.164-.332v-.998c-.25.166-.582.29-1.04.415-.457.125-.831.208-1.247.208-.873 0-1.538-.332-1.954-.914-.458-.582-.665-1.29-.665-2.163H79v-.498zm-5.488-.375c0-.457.083-.873.29-1.289.208-.415.458-.79.832-1.04.333-.248.79-.415 1.248-.415.498 0 .873.125 1.205.416.291.25.54.624.666 1.04.124.415.207.873.207 1.33h-4.448v-.042zm-47.276-.457c-.79 0-1.58.042-2.411.125-.832.124-1.539.374-2.12.79-.583.415-.874 1.04-.915 1.954 0 .25.041.582.207.915.167.374.416.665.832.956.416.25 1.04.416 1.871.416.582 0 1.123-.125 1.622-.374.498-.25.914-.624 1.164-1.123h.041v1.33h1.081c-.041-.29-.083-.54-.083-.831v-4.491c0-1.04-.25-1.83-.707-2.328-.498-.499-1.289-.707-2.37-.707-.415 0-.831.083-1.33.166-.5.125-.915.25-1.247.416v.957a3.92 3.92 0 011.247-.5c.416-.124.873-.166 1.33-.166.707 0 1.248.167 1.539.54.29.333.457.874.457 1.58v.417h-.208v-.042zm.125 2.495c-.083.457-.333.873-.707 1.247-.374.333-.998.54-1.83.54-.498 0-.956-.124-1.288-.332-.333-.208-.5-.624-.54-1.123 0-.582.207-1.04.665-1.289.415-.29.914-.457 1.58-.54a14.298 14.298 0 011.912-.125h.291v.5c.042.29 0 .706-.083 1.122zM12.183 12.35v11.517h1.08v-4.781h.042c.25.54.624.915 1.04 1.164.457.291.998.416 1.704.416.79 0 1.497-.208 2.038-.582.54-.375.915-.873 1.206-1.497.25-.624.415-1.372.415-2.162 0-1.248-.29-2.287-.831-3.077-.582-.748-1.497-1.164-2.786-1.206-.624 0-1.123.125-1.497.333a3.081 3.081 0 00-.873.707c-.208.29-.333.498-.416.623h-.041l.083-1.497h-1.164v.042zm1.33 2.495a3.01 3.01 0 01.832-1.29c.374-.373.914-.54 1.538-.54.707 0 1.206.208 1.622.54.374.333.623.75.79 1.29.124.499.208 1.04.208 1.58s-.084 1.08-.208 1.58c-.167.54-.416.956-.79 1.289-.416.332-.915.499-1.622.54-.623 0-1.164-.208-1.538-.54a3.01 3.01 0 01-.832-1.29 5.162 5.162 0 01-.25-1.538c0-.499.084-1.08.25-1.621zm-11.06 2.661h6.07l1.29 2.993h1.247L6.278 9.315h-1.33L0 20.499h1.164l1.29-2.993zm3.077-7.11l2.62 6.153H2.91l2.62-6.153zM36.215 1.54c1.414.956 2.62 5.488 2.952 6.902.125.499.25 1.413.25 1.413h.831s-.041-.416-.25-1.206c-.29-1.372-1.704-6.61-3.325-7.733-.79-.54-1.663-.749-2.62-.54-1.206.249-2.328.914-3.41 1.58-1.371.83-2.66 1.62-4.074 1.538-1.04-.042-1.871-.79-2.703-1.58-1.164-1.04-2.453-2.246-4.49-1.83-3.368.624-3.784 3.909-3.867 5.031 0 1.29.208 2.37.208 2.37s.374-1.289.54-2.328c.167-1.081.5-3.742 3.285-4.283 1.663-.29 2.703.624 3.784 1.622.499.457 2.162 1.912 3.077 2.287.332.124 1.372.831 2.952-.375.665-.499 1.87-1.704 2.702-2.286.832-.583 1.539-.832 2.162-.957.707-.166 1.373-.041 1.996.374zm2.703 19.999l-.499 1.33c-.208.624-.54 1.497-.748 1.913-1.456 3.534-2.703 6.07-3.784 7.859-1.123 1.455-2.12 2.494-3.451 2.328-1.123-.125-1.788-1.954-1.954-3.119-.167-1.413-.208-2.12-.25-3.783v-1.29c0-.415 0-2.494-.499-2.535-.125.124-.208.914-.208 2.744.042 3.326.458 9.23 2.08 10.228.207.125.415.208.665.208.166 0 .332-.041.498-.125 2.287-1.08 4.907-5.155 7.776-12.182.208-.54 1.122-2.87 1.33-3.534h-.956v-.042zm5.904-5.904l-2.66-4.45h-5.365l-2.66 4.45 2.66 4.449h5.364l2.661-4.45z" fill="#B3B4BC"/><path d="M42.452 10.687h-5.987l-2.994 4.948 2.994 4.948h5.945l2.994-4.948-2.952-4.948zm-5.655 9.397l-2.66-4.45 2.66-4.448h5.364l2.661 4.449-2.66 4.449h-5.365z" fill="#B3B4BC"/></svg>