<svg width="90" height="27" fill="none" xmlns="http://www.w3.org/2000/svg"><path d="M0 5.839h9.664c1.533.038 3.412.077 4.429 1.58.537.77.594 1.619.594 2.158 0 .405-.038 1.272-.594 2.043-.614.828-1.42 1.079-1.88 1.214.921.25 3.222.848 3.222 3.892 0 .887-.192 1.812-.671 2.582-1.17 1.792-3.087 1.792-4.544 1.812H0V5.839zm3.7 6.012h5.33c.442 0 .864-.02 1.209-.154.882-.366.882-1.388.882-1.561 0-1.619-1.208-1.638-1.803-1.638H3.701v3.353zm0 6.59h5.6c.843 0 2.434.02 2.434-2.081 0-1.83-1.419-1.83-1.955-1.83H3.7v3.911zM16.585 5.665h3.95v12.468h7.88v2.813h-11.83V5.666z" fill="#B3B4BC"/><path d="M35.088 5.685h4.467l6.769 15.28h-4.391l-1.227-2.87h-6.922l-1.227 2.87h-4.43l6.96-15.28zm2.205 3.16l-2.358 6.012h4.524l-2.166-6.012zm9.222-3.276h4.238s6.385 8.536 7.17 9.885L57.81 5.57h4.218v15.28h-4.314s-5.963-7.65-7.094-9.672l.057 9.673h-4.141V5.569h-.02z" fill="#B3B4BC"/><path d="M69.198 12.776L59.688 0h8.628l5.292 8.325L78.918 0h8.648l-9.53 12.564L88.41 26.13h-8.82l-6.04-8.864-6.25 8.864h-8.628l10.526-13.354z" fill="#B3B4BC"/><path d="M85.534 4.374c0-.867.786-1.58 1.745-1.58.958 0 1.744.713 1.744 1.58 0 .867-.786 1.58-1.744 1.58-.978.02-1.745-.693-1.745-1.58zm2.914 0c0-.655-.537-1.137-1.188-1.137-.652 0-1.19.482-1.19 1.137s.538 1.137 1.19 1.137c.67 0 1.188-.482 1.188-1.137zm-1.879-.867h.767c.48 0 .729.116.729.501 0 .328-.23.463-.537.482l.46.751h-.46l-.422-.713h-.057v.713h-.46V3.507h-.02zm.48.675h.287c.173 0 .288-.058.288-.193s-.192-.154-.326-.154h-.25v.347z" fill="#B3B4BC"/></svg>