<svg width="62" height="40" fill="none" xmlns="http://www.w3.org/2000/svg"><path d="M60.038 16.973h-1.494V0h1.494v16.973zm-13.276-4.037c.166.596.399 1.092.73 1.555.332.463.764.827 1.262 1.158.497.298 1.128.464 1.825.464 1.095 0 1.958-.298 2.589-.86.63-.563 1.062-1.324 1.294-2.284h1.493c-.331 1.39-.896 2.482-1.758 3.243-.863.76-2.058 1.158-3.618 1.158-.962 0-1.825-.166-2.522-.497-.697-.33-1.295-.794-1.726-1.39a6.75 6.75 0 01-.996-2.084 10.161 10.161 0 01-.332-2.48c0-.795.1-1.589.332-2.383.2-.761.531-1.456.996-2.084.431-.596 1.029-1.092 1.726-1.49.697-.363 1.56-.562 2.522-.562.996 0 1.825.199 2.522.596a5.095 5.095 0 011.693 1.555 6.07 6.07 0 01.93 2.217 9.4 9.4 0 01.232 2.547h-9.46c.034.463.1 1.026.266 1.621zm7.434-4.599c-.199-.529-.431-.992-.763-1.39a3.525 3.525 0 00-1.228-.959 3.674 3.674 0 00-1.626-.364c-.63 0-1.162.133-1.66.364a3.857 3.857 0 00-1.227.96c-.332.397-.598.86-.797 1.39a6.747 6.747 0 00-.398 1.62h7.965c0-.529-.1-1.091-.266-1.62zm-21.04 4.4c.165.63.397 1.192.73 1.688.331.496.73.893 1.26 1.191.498.298 1.129.463 1.826.463.796 0 1.46-.165 2.024-.463a3.557 3.557 0 001.328-1.19 4.829 4.829 0 00.73-1.688 7.335 7.335 0 00.232-1.886c0-.629-.066-1.257-.232-1.886s-.398-1.191-.73-1.687c-.332-.497-.797-.894-1.328-1.191-.564-.298-1.228-.464-2.024-.464-.73 0-1.328.166-1.826.464a3.92 3.92 0 00-1.26 1.19c-.333.497-.565 1.06-.73 1.688a7.34 7.34 0 00-.233 1.886c0 .629.066 1.257.232 1.886zm8.23 4.236v-2.316h-.033a3.818 3.818 0 01-.697 1.092c-.299.33-.664.628-1.062.86a6.09 6.09 0 01-1.261.53 4.835 4.835 0 01-1.361.198c-.93 0-1.76-.166-2.456-.497a4.717 4.717 0 01-1.726-1.39c-.465-.595-.796-1.29-1.029-2.084a8.784 8.784 0 01-.332-2.481c0-.86.1-1.687.332-2.481.233-.794.564-1.49 1.03-2.085a5.167 5.167 0 011.725-1.422c.697-.364 1.493-.53 2.456-.53.464 0 .896.066 1.36.166.432.099.863.297 1.228.496.399.232.73.496 1.03.86.298.331.53.728.663 1.158h.033V0h1.494v16.973h-1.394zm-20.942-4.037c.166.596.398 1.092.73 1.555.332.463.764.827 1.261 1.158.498.298 1.129.464 1.826.464 1.095 0 1.958-.298 2.588-.86.63-.563 1.062-1.324 1.295-2.284h1.493c-.332 1.39-.896 2.482-1.759 3.243-.863.76-2.058 1.158-3.617 1.158-.963 0-1.826-.166-2.523-.497-.697-.33-1.294-.794-1.725-1.39a6.751 6.751 0 01-.996-2.084c-.2-.793-.332-1.62-.332-2.48 0-.795.1-1.589.332-2.383.2-.761.531-1.456.996-2.084.431-.596 1.028-1.092 1.725-1.49.697-.363 1.56-.562 2.523-.562.995 0 1.825.199 2.522.596a5.095 5.095 0 011.693 1.555 6.05 6.05 0 01.929 2.217 9.36 9.36 0 01.232 2.547h-9.425c0 .463.066 1.026.232 1.621zm7.434-4.599c-.199-.529-.431-.992-.763-1.39a3.525 3.525 0 00-1.228-.959 3.673 3.673 0 00-1.626-.364 3.82 3.82 0 00-1.66.364 3.856 3.856 0 00-1.228.96c-.332.397-.597.86-.796 1.39a6.797 6.797 0 00-.399 1.62h7.966a3.966 3.966 0 00-.266-1.62zm23.829 26.27v.496c0 .728.233 1.29.664 1.72.431.43 1.128.663 2.058.663.332 0 .63-.067.896-.166.265-.1.498-.231.697-.397.199-.165.365-.33.53-.562.167-.199.3-.397.432-.596h3.385a8.566 8.566 0 01-.962 1.82c-.365.53-.796.96-1.294 1.323-.498.364-1.096.629-1.76.794a9.834 9.834 0 01-2.356.265c-.83 0-1.593-.1-2.257-.33-.663-.233-1.26-.563-1.725-1.027a4.953 4.953 0 01-1.096-1.687c-.265-.662-.398-1.456-.398-2.316 0-.992.166-1.919.465-2.845.332-.927.763-1.72 1.36-2.415.565-.695 1.295-1.258 2.125-1.688.83-.43 1.792-.628 2.82-.628.864 0 1.627.099 2.357.33a5.717 5.717 0 011.825.993 4.657 4.657 0 011.162 1.687c.265.662.431 1.456.431 2.35 0 .595-.066 1.257-.199 1.918h-9.093c-.034.166-.067.232-.067.298zm5.974-3.308c-.066-.298-.166-.596-.332-.828a1.535 1.535 0 00-.697-.595c-.298-.166-.697-.232-1.194-.232-.465 0-.896.067-1.262.199-.365.132-.697.33-.962.562a3.17 3.17 0 00-.664.827c-.199.331-.332.662-.465.993h5.643c0-.298-.034-.596-.067-.926zm-9.193-3.871l-.531 2.25h-2.423l-1.26 6.087c-.034.132-.067.232-.067.33 0 .1-.033.166-.033.233 0 .231.033.397.1.496.066.132.165.198.265.265.1.066.232.099.365.099h.398c.398 0 .83-.033 1.228-.066l-.564 2.58c-.365.033-.697.066-1.062.1-.365.033-.697.033-1.062.033-.399 0-.797-.034-1.195-.1a3.661 3.661 0 01-1.062-.364c-.299-.198-.564-.43-.73-.76-.2-.331-.266-.728-.266-1.225 0-.165 0-.33.033-.53.034-.198.067-.396.133-.628l1.394-6.584h-2.224l.532-2.25h2.157l.763-3.738h3.385L46 27.395h2.489v.033zm-9.492 0l-2.622 12.274H32.99l2.589-12.274h3.418zm-3.02-1.92l.63-2.778h3.419l-.63 2.779h-3.419zm-10.62-2.778l-1.261 6.087h.033c.133-.165.299-.364.564-.562.232-.199.531-.397.863-.563.332-.165.73-.33 1.162-.43.431-.132.929-.165 1.493-.165 2.39 0 3.584 1.092 3.584 3.308 0 .133 0 .298-.033.497l-.1.595a3.861 3.861 0 01-.132.596c-.033.165-.067.33-.1.43l-1.493 7.18H26.55l1.493-7.213c.033-.199.066-.43.133-.761.066-.331.1-.563.1-.728 0-.364-.167-.662-.498-.893a1.89 1.89 0 00-1.096-.364c-.497 0-.962.099-1.36.297a3.31 3.31 0 00-.996.761 6.098 6.098 0 00-.697 1.092 5.56 5.56 0 00-.431 1.257l-1.394 6.551h-3.352L21.97 22.73h3.385zM9.193 39.702l-.431-8.635h-.033l-3.817 8.635H1.36L0 27.428h3.452l.464 8.635h.067l3.783-8.635h3.418l.366 8.569h.066l3.95-8.57h3.584l-6.44 12.276H9.193z" fill="#B3B4BC"/></svg>