<svg width="309" height="127" fill="none" xmlns="http://www.w3.org/2000/svg"><path d="M79.036 26.999c.005-1.971 2.557-2.747 3.658-1.113l5.65 8.381a2 2 0 002.241.796l9.405-2.861c1.827-.556 3.32 1.52 2.21 3.075l-5.97 8.363a2 2 0 00-.03 2.28l5.838 8.658c1.089 1.616-.54 3.677-2.364 2.99l-9.109-3.431a2 2 0 00-2.333.71l-5.655 7.922c-1.132 1.587-3.633.782-3.628-1.166l.026-10.443a2 2 0 00-1.295-1.877l-9.615-3.622c-1.787-.673-1.704-3.229.123-3.785l9.405-2.86a2 2 0 001.418-1.91L79.036 27zm142.177 12.735c.012-4.927 6.391-6.868 9.146-2.782l10.055 14.916a5 5 0 005.601 1.988l16.897-5.14c4.568-1.39 8.299 3.802 5.525 7.688l-10.823 15.164a5 5 0 00-.076 5.7l10.522 15.609c2.723 4.04-1.349 9.191-5.908 7.474l-16.169-6.09a5 5 0 00-5.832 1.773l-10.038 14.064c-2.83 3.965-9.082 1.954-9.069-2.918l.047-18.824a5 5 0 00-3.238-4.692l-17.434-6.567c-4.468-1.683-4.26-8.073.307-9.463l16.897-5.14a5.001 5.001 0 003.545-4.77l.045-17.99zm63.934-32.842c.007-2.956 3.834-4.12 5.487-1.67l3.758 5.576a3 3 0 003.361 1.193l6.44-1.96c2.741-.833 4.98 2.282 3.315 4.614l-4.202 5.887a3.002 3.002 0 00-.046 3.42l4.039 5.99c1.634 2.424-.81 5.516-3.545 4.485l-6.01-2.264a3 3 0 00-3.499 1.065l-3.731 5.227c-1.699 2.38-5.45 1.173-5.442-1.75l.018-7.225a3 3 0 00-1.943-2.815l-6.769-2.55c-2.681-1.01-2.556-4.844.184-5.677l6.441-1.96a3 3 0 002.127-2.862l.017-6.724z" fill="#D3E7F4"/><path d="M176.156 14.604c-12.452.595-21.089-2.093-26.688-4.663-7.304-3.355-9.2-6.408-16.52-8.05-3.006-.674-13.705-3.07-21.906 2.958-6.083 4.45-7.574 11.151-9.438 19.495-.944 4.235-3.251 15.338.77 27.94 2.752 8.519 6.566 12.532 7.28 16.109 1.912 9.675-.063 10 1.079 20.62.246 2.316.888 17.932 11.627 28.552 3.053 3.014 9.501 9.359 14.855 7.59 5.877-1.951 7.78-12.967 8.47-16.941 1.182-6.804-.127-9.406 2.379-14.156.484-.905 4.172-7.725 8.653-7.456 4.909.294 8.494 8.954 9.731 14.411 2.039 8.978-1.356 13.364 2.507 19.304.793 1.229 2.887 4.449 6.392 5.266 7.844 1.817 17.52-9.683 21.604-19.486 2.126-5.1 2.927-7.138 3.966-17.107.793-8.082 0-12.38 0-17.012 0-12.532 10.445-13.721 2.91-55.803-1.578-8.455-6.725-11.04-8.985-12.365-4.347-2.554-8.915-2.474-15.593-1.737a171.013 171.013 0 00-30.447 6.274" fill="#fff"/><path d="M176.259 13.772c-9.572.436-19.336-1.055-27.941-5.465-4.14-2.157-7.852-5.107-12.38-6.559a38.268 38.268 0 00-10.437-1.72 25.284 25.284 0 00-13.61 3.243 20.441 20.441 0 00-8.502 10.366 75.628 75.628 0 00-3.331 12.563 56.473 56.473 0 00-1.142 12.245 49.17 49.17 0 003.402 17.179 60.906 60.906 0 003.109 6.535c.793 1.491 1.713 2.95 2.379 4.513a20.516 20.516 0 011.293 5.742c.224 1.807.3 3.629.23 5.448a90.458 90.458 0 00.262 11.723c.603 6.455 1.919 12.776 4.759 18.645a38.963 38.963 0 008.105 10.977c3.101 2.958 6.67 6.131 10.985 6.924 8.533 1.586 11.587-8.978 12.88-15.307a55.25 55.25 0 00.872-5.441c.222-2.11.182-4.243.42-6.345a16.658 16.658 0 013.879-8.478c1.054-1.277 2.482-2.816 4.203-3.101 1.721-.285 3.252 1.039 4.291 2.236 2.712 3.173 4.267 7.408 5.203 11.405.578 2.546.823 5.156.729 7.765a58.981 58.981 0 00-.095 6.035 14.227 14.227 0 005.219 9.645c7.732 6.344 17.115-2.76 21.517-8.772a47.383 47.383 0 008.803-21.366 87.395 87.395 0 00.936-15.57c-.127-3.029-.5-6.098-.183-9.128.342-3.323 1.547-6.218 2.626-9.366 4.449-13.015 3.013-27.037.856-40.377-.793-4.703-1.538-9.446-4.893-13.078a20.383 20.383 0 00-7.598-4.99C188.592.234 183.588.774 178.9 1.297a162.51 162.51 0 00-13.689 2.142c-5.599 1.102-11.103 2.498-16.607 4.132-1.396.42-1 1.966.412 1.586a171.049 171.049 0 0129.908-6.186c4.64-.524 9.708-1.103 14.062 1.007a17.924 17.924 0 016.575 5.115c3.053 4.085 3.45 9.462 4.171 14.348a140.37 140.37 0 011.484 14.482 63.23 63.23 0 01-1.293 17.496c-.793 3.45-2.197 6.693-3.212 10.08a23.682 23.682 0 00-.944 4.64c-.286 3.053.095 6.138.214 9.184a86.731 86.731 0 01-.952 15.307 39.297 39.297 0 01-2.379 9.374 49.671 49.671 0 01-6.345 11.619c-2.601 3.45-5.837 6.987-9.906 8.677a7.187 7.187 0 01-5.084.357 9.769 9.769 0 01-4.615-3.776 12.696 12.696 0 01-2.269-4.758 21.686 21.686 0 01-.206-5.592 35.442 35.442 0 00-1.665-13.34c-1.246-3.68-3.086-8.042-6.425-10.31-6.384-4.338-12.856 4.576-14.402 10.017a24.534 24.534 0 00-.651 5.552 50.936 50.936 0 01-.706 6.495 42.64 42.64 0 01-2.68 9.74c-1.348 3.085-3.593 6.543-7.455 5.773-4.021-.793-7.44-4.148-10.263-6.916-6.202-6.083-9.755-13.982-11.286-22.452-.381-2.11-.595-4.228-.793-6.345a63.032 63.032 0 01-.373-6.813c0-1.586.127-3.244.167-4.862a35.415 35.415 0 00-.31-5.551 19.87 19.87 0 00-1.253-5.473c-1.586-3.672-3.87-6.995-5.385-10.73a50.962 50.962 0 01-2.427-29.115c1.674-8.24 3.49-17.94 11.659-22.207 3.965-2.07 8.518-2.57 12.919-2.19a31.683 31.683 0 0110.224 2.42 50.206 50.206 0 015.884 3.362 54.252 54.252 0 006.504 3.442 51.999 51.999 0 0011.024 3.395 65.617 65.617 0 0015.545 1.007c1.293-.055 1.784-1.729.214-1.657h-.032z" fill="#2C2761"/><path d="M122.669 38.358a6.58 6.58 0 011.658-5.496 7.135 7.135 0 012.474-1.809 7.774 7.774 0 013.022-.65 7.932 7.932 0 013.03.643 7.315 7.315 0 012.474 1.808 6.608 6.608 0 011.658 5.504 7.932 7.932 0 00-2.53-4.624 7.013 7.013 0 00-9.256 0 7.855 7.855 0 00-2.53 4.624zm62.354 0a7.932 7.932 0 00-2.53-4.624 7.01 7.01 0 00-9.256 0 7.967 7.967 0 00-2.537 4.624 6.64 6.64 0 011.665-5.504 7.363 7.363 0 012.467-1.808 7.923 7.923 0 013.029-.643 7.813 7.813 0 013.03.65 7.25 7.25 0 012.474 1.809 6.64 6.64 0 011.658 5.496z" fill="#2C2761"/><path d="M161.674 46.328c0 5.053-3.593 9.787-7.392 9.787-3.799 0-7.605-4.949-7.605-9.993 0-3.751 3.68-1.848 7.478-1.848 3.799 0 7.519-1.903 7.519 2.054z" fill="#322435" stroke="#2C2761" stroke-miterlimit="10"/><path d="M158.716 49.596c0 3.077-2.189 5.956-4.505 5.956s-4.632-3.006-4.632-6.083c0-2.284 4.64 1.586 4.64 1.586s4.497-3.87 4.497-1.459z" fill="#F1C0DB"/><path d="M158.422 49.668a6.538 6.538 0 01-2.276 5.012 2.84 2.84 0 01-2.3.674 4.168 4.168 0 01-2.118-1.293 6.82 6.82 0 01-1.459-2.379 7.662 7.662 0 01-.365-1.356 3.055 3.055 0 010-1.198c.103-.349.357-.23.69-.11.476.187.93.423 1.357.705a18.05 18.05 0 011.998 1.467.453.453 0 00.492-.071 16.521 16.521 0 011.959-1.46c.595-.38 1.998-1.3 2.022 0 0 .167.579.064.579-.15-.047-2.38-4.346.944-5.012 1.523l.492-.072a17.707 17.707 0 00-2.213-1.586c-.658-.404-2.102-1.277-2.792-.444a.904.904 0 00-.182.587c-.007.587.07 1.172.23 1.737a7.185 7.185 0 001.491 2.84c1.221 1.403 3.006 2.077 4.758 1.213 2.094-1.047 3.173-3.53 3.236-5.782-.008-.167-.579-.064-.587.143z" fill="#451F51"/><path d="M125.945 51.849c2.79 0 5.052-1.627 5.052-3.633 0-2.006-2.262-3.632-5.052-3.632-2.791 0-5.052 1.626-5.052 3.632 0 2.006 2.261 3.633 5.052 3.633zm54.296 0c2.79 0 5.052-1.627 5.052-3.633 0-2.006-2.262-3.632-5.052-3.632-2.791 0-5.053 1.626-5.053 3.632 0 2.006 2.262 3.633 5.053 3.633z" fill="#FAD2CC"/><path d="M103.952 59.367c1.769 4.156 5.797 6.535 9.517 8.669A89.073 89.073 0 00126.206 74a2.216 2.216 0 001.587-.262c.253-.142.793-.531.253-.721a86.519 86.519 0 01-12.443-5.806c-3.609-2.086-7.63-4.402-9.319-8.454-.278-.659-2.522.07-2.292.61h-.04zm99.606-2.752c-2.467 2.118-4.854 4.425-7.471 6.345a10.954 10.954 0 01-7.931 1.998 2.165 2.165 0 00-1.626.437c-.333.301-.301.674.198.745a15.57 15.57 0 009.811-1.935 29.019 29.019 0 004.124-3.22l4.759-4.069c.372-.309.253-.634-.199-.737a2.09 2.09 0 00-1.586.436h-.079z" fill="#2C2761"/><path d="M139.586 28.182h-20.224a4.664 4.664 0 00-4.664 4.664v6.622a4.664 4.664 0 004.664 4.664h20.224a4.664 4.664 0 004.664-4.664v-6.622a4.664 4.664 0 00-4.664-4.664zm47.007 0h-20.034a4.942 4.942 0 00-4.941 4.941v6.068a4.942 4.942 0 004.941 4.94h20.034a4.94 4.94 0 004.941-4.94v-6.068a4.94 4.94 0 00-4.941-4.94z" fill="#24112C"/><path d="M116.991 37.747c-.27-2.212-1.904-4.18-3.339-5.766a23.547 23.547 0 00-5.1-4.536 14.279 14.279 0 00-7.138-1.864 5.425 5.425 0 00-3.672.976 2.324 2.324 0 00-.627 3.109c.54.793 2.745 0 2.11-.992a.984.984 0 01.143-1.237c.363-.237.8-.333 1.229-.27a14.03 14.03 0 012.99.317 11.103 11.103 0 015.076 2.681 32.974 32.974 0 013.712 3.807 9.04 9.04 0 012.308 4.41c.119.991 2.427.436 2.3-.611l.008-.024zm74.028 1.65c.793-4.553 3.878-8.232 7.661-10.723a34.117 34.117 0 016.544-3.22c1.086-.412 2.506-1.19 3.687-1.174 1 0 2.102 1.293 1.333 2.205-.341.413.301.54.587.54a2.167 2.167 0 001.531-.587 1.873 1.873 0 00-.27-2.61c-1.015-.936-2.689-.737-3.91-.436a40.492 40.492 0 00-8.724 3.498c-5.06 2.672-9.7 6.987-10.747 12.848-.127.73 2.165.333 2.284-.341h.024zm-24.237-4.592a161.554 161.554 0 00-33.834 1.642c-.278 0-1.325.27-1.333.658-.008.389.659.333.936.285a156.678 156.678 0 0132.755-1.586 2.444 2.444 0 001.587-.436c.301-.262.356-.54-.151-.571l.04.008z" fill="#24112C"/><path d="M18.175 70.289c.013-4.927 6.392-6.868 9.146-2.782l6.463 9.586a5 5 0 005.6 1.988l11.058-3.363c4.568-1.39 8.298 3.802 5.525 7.688l-7.204 10.093a5 5 0 00-.077 5.7l6.93 10.279c2.723 4.039-1.35 9.191-5.908 7.474l-10.34-3.895a5 5 0 00-5.832 1.775l-6.418 8.992c-2.83 3.965-9.082 1.954-9.07-2.917l.032-12.397a5 5 0 00-3.238-4.691L3.238 99.447c-4.468-1.683-4.261-8.073.307-9.462l11.057-3.364a5 5 0 003.544-4.771l.03-11.561z" fill="#D3E7F4"/><ellipse cx="23.034" cy="89.423" rx="2.5" ry="6" transform="rotate(31.456 23.034 89.423)" fill="#fff"/><ellipse cx="82.311" cy="34.296" rx="1.49" ry="5.282" transform="rotate(.551 82.311 34.296)" fill="#fff"/><ellipse cx="225.77" cy="97.5" rx="2" ry="8.5" transform="rotate(2.902 225.77 97.5)" fill="#fff"/></svg>