<svg width="290" height="197" fill="none" xmlns="http://www.w3.org/2000/svg"><path d="M73.589 32.706C55.882 18.922 1.77 19.327 1.77 56.626c0 37.298 36.122 47.434 60.345 35.677 24.438-11.862 4.25-44.19-24.223-35.677C5.17 66.41-12.23 143.5 66.364 168.522c54.596 17.381 80.342-40.137 66.402-58.674-9.349-12.433-34.104-26.953-52.803 5.158-20.095 34.511 4.466 59.974 18.699 66.894 29.407 14.299 77.012 11.758 100.385-7.703 18.699-15.568 32.88-37.447 32.88-46.38 0-25.955-25.759-32.595-48.537-12.811-28.472 24.731 25.337 59.191 57.209 59.191 25.498 0 42.071-16.216 47.171-24.325" stroke="#D3E7F4" stroke-width="3" stroke-linecap="round" stroke-linejoin="round"/><path d="M84.073 45.2C67.233 32.067 15.77 24.62 15.77 67.986c0 35.533 34.354 45.189 57.39 33.988 23.243-11.3 4.042-42.099-23.036-33.988-31.12 9.321-27.24 102.273 27.078 106.599 54.32 4.325 76.409-38.237 63.152-55.896-8.892-11.845-32.435-25.678-50.219 4.914-19.111 32.876 4.247 57.134 17.784 63.727 27.968 13.622 73.243 11.201 95.471-7.338 17.784-14.831 31.271-35.674 31.271-44.185 0-24.726-24.498-31.052-46.161-12.204-27.079 23.56 24.096 56.389 54.408 56.389 24.25 0 40.012-15.449 44.862-23.174" stroke="#D3E7F4" stroke-linecap="round" stroke-linejoin="round"/><path d="M162.152 66.286c-13.278.643-22.488-2.224-28.459-4.964-7.789-3.595-9.811-6.834-17.617-8.585-3.205-.718-14.614-3.273-23.368 3.147-6.478 4.753-8.068 11.9-10.056 20.796-1.006 4.508-3.51 16.366.846 29.796 2.926 9.083 6.994 13.363 7.756 17.177 2.038 10.318-.068 10.665 1.15 21.989.262 2.47.956 19.122 12.398 30.447 3.256 3.214 10.149 10.022 15.807 8.128 6.267-2.089 8.305-13.828 9.033-18.066 1.26-7.264-.136-10.03 2.537-15.096.516-.964 4.449-8.246 9.227-7.958 5.235.321 9.058 9.556 10.377 15.375 2.174 9.574-1.446 14.242 2.673 20.577.846 1.319 3.087 4.753 6.817 5.616 8.364 1.945 18.682-10.318 23.038-20.772 2.266-5.438 3.12-7.611 4.228-18.251.846-8.618 0-13.193 0-18.132 0-13.363 11.139-14.64 3.104-59.507-1.607-9.015-7.087-11.781-9.498-13.193-4.634-2.715-9.506-2.63-16.618-1.844-8.035.846-20.298 3.383-33.551 7.4" fill="#fff"/><path d="M162.262 65.406c-10.208.466-20.619-1.099-29.762-5.827-4.448-2.309-8.406-5.48-13.235-6.994a40.385 40.385 0 00-11.122-1.827 26.987 26.987 0 00-14.521 3.45 21.77 21.77 0 00-9.067 11.055 80.654 80.654 0 00-3.552 13.422 60.223 60.223 0 00-1.226 13.032 52.486 52.486 0 003.636 18.319 63.983 63.983 0 003.316 6.961c.846 1.598 1.827 3.154 2.537 4.82a22.189 22.189 0 011.395 6.107c.239 1.927.32 3.87.246 5.81a94.88 94.88 0 00.287 12.5c.635 6.884 2.039 13.625 5.075 19.883a41.185 41.185 0 008.66 11.705c3.265 3.147 7.079 6.555 11.671 7.409 9.101 1.692 12.365-9.574 13.735-16.323.389-1.92.736-3.856.939-5.802.228-2.258.186-4.533.44-6.765a17.636 17.636 0 014.169-9.041c1.117-1.362 2.639-3.011 4.474-3.307 1.836-.296 3.468 1.108 4.576 2.385 2.892 3.383 4.55 7.899 5.548 12.161.618 2.715.879 5.498.778 8.28a62.812 62.812 0 00-.102 6.436 15.117 15.117 0 005.582 10.242c8.246 6.766 18.243-2.934 22.937-9.345a50.527 50.527 0 009.388-22.759 92.597 92.597 0 00.998-16.602c-.136-3.231-.533-6.504-.195-9.734.364-3.544 1.691-6.631 2.799-9.989 4.745-13.878 3.214-28.831.914-43.056-.846-5.016-1.641-10.073-5.218-13.947a21.571 21.571 0 00-8.103-5.32c-4.803-1.775-10.149-1.217-15.147-.642a153.656 153.656 0 00-15.164 2.655c-6.132 1.345-12.212 2.952-18.226 4.754-1.488.44-1.065 2.097.44 1.691 10.749-3.222 21.803-6.047 32.984-7.316 4.948-.566 10.36-1.167 14.995 1.075a19.031 19.031 0 017.011 5.454c3.256 4.348 3.688 10.09 4.449 15.291a150.434 150.434 0 011.505 15.41 67.422 67.422 0 01-1.378 18.657c-.846 3.671-2.335 7.138-3.383 10.749a25.302 25.302 0 00-1.007 4.948c-.304 3.248.102 6.538.229 9.794a92.573 92.573 0 01-1.015 16.322 42.268 42.268 0 01-2.538 9.997 53.385 53.385 0 01-6.765 12.382c-2.774 3.679-6.234 7.459-10.572 9.261a7.655 7.655 0 01-5.421.38 10.46 10.46 0 01-4.923-4.025 13.544 13.544 0 01-2.418-5.075 23.436 23.436 0 01-.22-5.962 37.794 37.794 0 00-1.743-14.184c-1.327-3.924-3.29-8.575-6.842-10.994-6.85-4.618-13.743 4.854-15.392 10.69a26.23 26.23 0 00-.702 5.92 52.675 52.675 0 01-.753 6.918 45.523 45.523 0 01-2.816 10.437c-1.438 3.29-3.831 6.977-7.95 6.148-4.28-.845-7.933-4.414-10.944-7.366-6.605-6.487-10.403-14.91-12.035-23.943-.406-2.25-.634-4.508-.846-6.766a67.203 67.203 0 01-.397-7.265c0-1.691.135-3.459.177-5.184a38.894 38.894 0 00-.32-5.92 21.467 21.467 0 00-1.346-5.836c-1.691-3.916-4.127-7.468-5.742-11.443a54.338 54.338 0 01-2.537-31.039c1.75-8.812 3.687-19.147 12.398-23.68 4.229-2.2 9.083-2.732 13.777-2.335a33.906 33.906 0 0110.843 2.487 53.623 53.623 0 016.275 3.586 57.114 57.114 0 006.935 3.662 55.642 55.642 0 0011.756 3.628 70.478 70.478 0 0016.551 1.074c1.379-.067 1.895-1.844.22-1.767v.033z" fill="#2C2761"/><path d="M102.696 89.595c-.075-.49-.014-.99.178-1.447a4.4 4.4 0 01.846-1.26 7.94 7.94 0 012.461-1.691c.902-.402 1.847-.7 2.816-.888.967-.17 1.945-.263 2.926-.28.982.018 1.96.111 2.927.28.969.188 1.914.486 2.816.888a7.94 7.94 0 012.461 1.691c.351.367.637.79.846 1.252.187.46.248.963.177 1.455a3.378 3.378 0 00-1.564-2.08 9.151 9.151 0 00-2.394-1.033 18.669 18.669 0 00-5.269-.701 18.678 18.678 0 00-5.269.701 8.88 8.88 0 00-2.351 1.032 3.328 3.328 0 00-1.607 2.08zm68.125 0a8.458 8.458 0 00-2.698-4.93 7.476 7.476 0 00-9.87 0 8.5 8.5 0 00-2.706 4.93 7.039 7.039 0 01.219-3.133 7.04 7.04 0 011.557-2.728 7.605 7.605 0 012.639-1.928 7.847 7.847 0 016.453 0 7.848 7.848 0 012.638 1.928 7.073 7.073 0 011.768 5.861z" fill="#2C2761"/><path d="M147.944 96.91c0 5.388-5.853 12.467-9.904 12.467s-9.937-7.104-9.937-12.492c0-4 5.751-.135 9.802-.135 4.051 0 10.039-4.051 10.039.16z" fill="#322435" stroke="#2C2761" stroke-miterlimit="10"/><path d="M142.768 102.425c0 3.281-2.335 6.351-4.804 6.351-2.47 0-4.905-3.205-4.905-6.486 0-2.436 4.939 1.691 4.939 1.691s4.77-4.127 4.77-1.556z" fill="#F1C0DB"/><path d="M142.463 102.551a6.996 6.996 0 01-2.436 5.337 2.989 2.989 0 01-2.452.719 4.43 4.43 0 01-2.258-1.379 7.282 7.282 0 01-1.557-2.537 7.367 7.367 0 01-.346-1.404 3.106 3.106 0 01-.043-1.277c.11-.372.381-.245.736-.118a7.793 7.793 0 011.489.659c.745.472 1.457.995 2.131 1.565.135.11.414 0 .533-.076a16.86 16.86 0 012.08-1.556c.635-.406 2.132-1.387 2.165 0 0 .169.609.059.609-.169-.05-2.538-4.634 1.006-5.345 1.623l.525-.076a18.881 18.881 0 00-2.36-1.691c-.702-.431-2.241-1.362-2.977-.474a.967.967 0 00-.195.626c-.007.626.075 1.25.246 1.852a7.605 7.605 0 001.59 3.028c1.302 1.497 3.205 2.216 5.074 1.294 2.233-1.116 3.383-3.764 3.451-6.165-.051-.161-.66-.051-.66.219z" fill="#451F51"/><path d="M113.329 102.078c.39-2.256-2.308-4.605-6.027-5.248-3.719-.643-7.05.664-7.44 2.919-.39 2.255 2.309 4.605 6.027 5.248 3.719.643 7.05-.664 7.44-2.919zm60.261 1.621c3.493-1.262 5.694-4.03 4.916-6.182-.778-2.153-4.239-2.875-7.732-1.614-3.492 1.262-5.693 4.03-4.915 6.182.777 2.153 4.239 2.875 7.731 1.614z" fill="#FAD2CC"/><path d="M95.28 125.26c2.207 2.757 5.496 3.467 8.854 3.797a46.99 46.99 0 0011.223-.288c.364-.05 1.345-.279 1.421-.735.076-.457-.753-.389-1.015-.356-3.338.488-6.723.57-10.081.246-3.138-.313-6.056-.981-8.11-3.544-.424-.533-2.775.288-2.293.846v.034zm97.547-18.826l-2.698 8.804c-.71 2.292-1.412 4.507-2.96 6.393-2.977 3.629-7.552 5.828-11.933 7.249-.322.109-1.21.397-1.074.845.135.448 1.074.33 1.37.229 4.897-1.59 9.861-3.899 13.388-7.773a15.972 15.972 0 003.383-6.351c1.003-3.237 2.004-6.481 3.002-9.735.237-.769-2.207-.44-2.444.339h-.034z" fill="#2C2761"/><path d="M136.487 97.149l-1.818-.178a.737.737 0 00-.805.66l-.178 1.818a.736.736 0 00.661.804l1.818.179a.737.737 0 00.804-.66l.178-1.819a.735.735 0 00-.66-.804zm3.388.015h-1.708a.795.795 0 00-.795.795v1.708c0 .44.356.795.795.795h1.708a.794.794 0 00.795-.795V97.96a.795.795 0 00-.795-.795z" fill="#fff"/><path d="M128.541 43.978c-2.98-.653-5.036-2.746-6.975-4.37a1681.978 1681.978 0 01-6.278-5.248c-3.651-3.051-7.663-6.041-13.077-7.323-.445-.11-2.476 0-2.182.653 4.697 9.803 8.123 19.904 10.231 30.171.571 2.93.781 5.896-.235 8.788-.21.61 2.224.354 2.434-.232 1.738-4.973.076-10.264-1.225-15.19a139.498 139.498 0 00-5.036-15.378 118.441 118.441 0 00-3.735-8.665l-2.191.659c5.632 1.367 9.644 4.577 13.43 7.756a2242.43 2242.43 0 006.571 5.493c1.939 1.61 3.878 3.197 6.791 3.832.738.165 2.845-.64 1.494-.934l-.017-.012zm15.512.921c4.912-2.948 9.033-6.496 13.263-9.94 3.953-3.217 8.108-6.74 13.246-8.971l-1.968-.497c-6.28 10.566-8.322 22.212-5.887 33.588a46.725 46.725 0 003.179 9.51c.362.803 2.792.313 2.439-.472-4.876-10.77-5.459-22.327-1.682-33.33a48.24 48.24 0 014.264-9.1c.538-.9-1.413-.74-1.968-.496-5.097 2.225-9.251 5.693-13.213 8.886-4.247 3.45-8.343 7.065-13.305 10.025-1.278.76.673 1.354 1.607.797h.025z" fill="#3E2668"/><path d="M153.878 36.157c-5.385-3.778-9.889-8.154-13.34-12.962-3.253-4.704-5.557-9.717-6.844-14.889a62.132 62.132 0 01-.952-4.466 8.164 8.164 0 01-.177-3.43c.177-.708-2.25-.405-2.444.2-3.58 10.83-8.29 21.451-14.091 31.772-.328.606 2.116.388 2.444-.212 5.803-10.316 10.513-20.933 14.091-31.76l-2.444.2a6.49 6.49 0 000 2.734c.219 1.387.48 2.775.843 4.15a48.687 48.687 0 002.587 7.97c2.125 5.065 5.35 9.856 9.557 14.197 2.53 2.575 5.376 4.983 8.503 7.193.624.443 2.941-.218 2.267-.697z" fill="#3E2668"/></svg>