<svg width="226" height="137" fill="none" xmlns="http://www.w3.org/2000/svg"><circle cx="193.77" cy="16" r="16" fill="#D3E7F4"/><path d="M161.176 16.578c-13.282.635-22.495-2.233-28.467-4.974-7.792-3.579-9.814-6.836-17.622-8.587-3.206-.719-14.619-3.274-23.375 3.156-6.48 4.746-8.07 11.894-10.058 20.794-1.007 4.518-3.511 16.361.829 29.804 2.927 9.086 6.996 13.367 7.757 17.182 2.04 10.321-.067 10.668 1.15 21.996.263 2.47.957 19.127 12.403 30.455 3.257 3.223 10.152 10.025 15.811 8.13 6.269-2.081 8.308-13.832 9.036-18.07 1.26-7.259-.136-10.034 2.538-15.101.516-.964 4.449-8.24 9.229-7.952 5.237.313 9.061 9.551 10.381 15.371 2.174 9.577-1.447 14.255 2.673 20.592.846 1.311 3.088 4.746 6.818 5.617 8.367 1.937 18.688-10.33 23.045-20.786 2.267-5.44 3.122-7.614 4.23-18.248.846-8.62 0-13.206 0-18.146 0-13.367 11.142-14.636 3.105-59.524-1.658-9.052-7.14-11.81-9.518-13.223-4.636-2.724-9.508-2.639-16.623-1.852-8.037.846-20.304 3.384-33.56 7.41" fill="#fff"/><path d="M161.286 15.69c-10.211.465-20.625-1.091-29.77-5.829-4.45-2.301-8.409-5.448-13.24-6.996a40.698 40.698 0 00-11.124-1.836 26.997 26.997 0 00-14.526 3.46 21.81 21.81 0 00-9.069 11.057 80.689 80.689 0 00-3.553 13.4 60.252 60.252 0 00-1.227 13.063 52.45 52.45 0 003.638 18.324 64.839 64.839 0 003.316 6.97c.846 1.591 1.828 3.148 2.538 4.814a22.194 22.194 0 011.37 6.125c.239 1.928.32 3.871.246 5.812-.18 4.17-.083 8.347.288 12.504.634 6.886 2.038 13.629 5.076 19.889a41.379 41.379 0 008.637 11.708c3.316 3.156 7.132 6.54 11.725 7.386 9.103 1.692 12.369-9.577 13.739-16.328.389-1.92.736-3.858.939-5.803.229-2.251.186-4.526.44-6.768a17.675 17.675 0 014.171-9.052c1.117-1.362 2.639-3.003 4.475-3.308 1.836-.304 3.469 1.108 4.577 2.386 2.893 3.384 4.551 7.901 5.55 12.165a32.16 32.16 0 01.778 8.282 62.851 62.851 0 00-.102 6.438 15.159 15.159 0 005.584 10.296c8.248 6.768 18.248-2.944 22.943-9.357a50.54 50.54 0 009.357-22.791 92.46 92.46 0 00.998-16.606c-.135-3.232-.533-6.506-.195-9.738.364-3.544 1.692-6.632 2.801-9.99 4.746-13.883 3.214-28.84.913-43.07-.846-5.017-1.641-10.076-5.22-13.95a21.67 21.67 0 00-8.104-5.321c-4.805-1.777-10.152-1.219-15.152-.643a153.69 153.69 0 00-15.168 2.656c-6.134 1.345-12.216 2.952-18.231 4.754-1.489.449-1.066 2.107.44 1.692 10.752-3.214 21.809-6.048 32.993-7.317C169.086 3.609 174.5 3 179.136 5.242a19.043 19.043 0 017.014 5.457c3.257 4.357 3.688 10.092 4.45 15.304a149.824 149.824 0 011.539 15.405 67.385 67.385 0 01-1.379 18.662c-.846 3.68-2.335 7.14-3.384 10.753a25.309 25.309 0 00-1.006 4.949c-.305 3.257.101 6.548.228 9.796a92.542 92.542 0 01-1.015 16.328 42.344 42.344 0 01-2.538 9.999 53.645 53.645 0 01-6.768 12.394c-2.775 3.68-6.235 7.453-10.575 9.255a7.655 7.655 0 01-5.423.381 10.46 10.46 0 01-4.923-4.027 13.545 13.545 0 01-2.42-5.076 23.452 23.452 0 01-.22-5.964 37.809 37.809 0 00-1.742-14.187c-1.329-3.926-3.291-8.579-6.844-10.998-6.819-4.628-13.722 4.881-15.363 10.685a26.184 26.184 0 00-.703 5.922 52.997 52.997 0 01-.753 6.928 45.43 45.43 0 01-2.851 10.44c-1.438 3.291-3.832 6.979-7.952 6.158-4.281-.846-7.935-4.424-10.947-7.377-6.607-6.488-10.406-14.914-12.038-23.949-.406-2.251-.635-4.51-.846-6.768a67.234 67.234 0 01-.398-7.267c0-1.692.136-3.46.178-5.186a38.91 38.91 0 00-.322-5.922A21.538 21.538 0 0090.79 71.5c-1.692-3.917-4.128-7.462-5.744-11.447a54.354 54.354 0 01-2.538-31.047c1.692-8.85 3.63-19.196 12.343-23.747 4.23-2.208 9.086-2.741 13.781-2.335a33.69 33.69 0 0110.905 2.58 53.572 53.572 0 016.277 3.587 58.402 58.402 0 006.937 3.672 55.637 55.637 0 0011.759 3.62 70.047 70.047 0 0016.556 1.075c1.379-.06 1.895-1.844.22-1.768z" fill="#2C2761"/><path d="M101.703 39.885c-.075-.49-.014-.99.178-1.447a4.54 4.54 0 01.846-1.26 7.944 7.944 0 012.462-1.692 12.974 12.974 0 012.817-.846c.963-.177 1.939-.28 2.919-.305.981.017 1.96.11 2.927.28.968.174 1.913.458 2.817.846.92.403 1.755.977 2.462 1.692a4.4 4.4 0 01.846 1.26c.187.458.248.957.177 1.447a3.383 3.383 0 00-1.565-2.073 8.605 8.605 0 00-2.394-1.074 18.382 18.382 0 00-5.27-.686 18.68 18.68 0 00-5.271.703 9.128 9.128 0 00-2.343 1.074 3.333 3.333 0 00-1.608 2.081zm68.145 0a8.463 8.463 0 00-2.699-4.932 7.48 7.48 0 00-9.873 0 8.505 8.505 0 00-2.707 4.932 7.058 7.058 0 011.777-5.862 7.684 7.684 0 012.639-1.93 8.257 8.257 0 013.223-.693 8.458 8.458 0 013.232.694 7.976 7.976 0 012.64 1.928 7.09 7.09 0 011.768 5.863z" fill="#2C2761"/><path d="M146.964 47.211c0 5.38-5.854 12.462-9.907 12.462-4.052 0-9.94-7.107-9.94-12.495 0-3.993 5.753-.136 9.805-.136s10.042-4.052 10.042.17z" fill="#322435" stroke="#2C2761" stroke-miterlimit="10"/><path d="M141.786 52.719c0 3.282-2.335 6.362-4.805 6.362-2.47 0-4.907-3.215-4.907-6.498 0-2.436 4.941 1.692 4.941 1.692s4.771-4.128 4.771-1.556z" fill="#F1C0DB"/><path d="M141.482 52.803a7.015 7.015 0 01-2.437 5.338 2.993 2.993 0 01-2.453.72 4.44 4.44 0 01-2.259-1.38 7.293 7.293 0 01-1.557-2.58 7.392 7.392 0 01-.346-1.421 3.068 3.068 0 01-.043-1.269c.11-.38.381-.254.736-.127.507.2.992.452 1.447.753.746.472 1.458.995 2.132 1.565.135.11.414 0 .533-.076.655-.569 1.35-1.09 2.081-1.557.634-.397 2.132-1.387 2.166 0 0 .17.609.06.609-.169-.051-2.538-4.636 1.007-5.347 1.624l.525-.076a19.663 19.663 0 00-2.361-1.692c-.702-.431-2.242-1.362-2.978-.465a.966.966 0 00-.194.618 6.65 6.65 0 00.245 1.86 7.617 7.617 0 001.591 3.021c1.302 1.497 3.206 2.216 5.076 1.294 2.233-1.116 3.384-3.764 3.451-6.167-.008-.152-.617-.042-.617.186z" fill="#451F51"/><path d="M112.337 52.378c.39-2.255-2.31-4.606-6.03-5.249-3.72-.643-7.052.664-7.442 2.92-.39 2.256 2.31 4.606 6.03 5.25 3.72.643 7.052-.665 7.442-2.92zM172.609 54c3.494-1.263 5.695-4.031 4.917-6.184-.777-2.154-4.24-2.876-7.733-1.614-3.494 1.262-5.695 4.03-4.918 6.183.778 2.154 4.241 2.876 7.734 1.614z" fill="#FAD2CC"/><path d="M135.508 47.436l-1.818-.179a.737.737 0 00-.805.661l-.178 1.819a.736.736 0 00.661.804l1.818.178a.737.737 0 00.805-.66l.178-1.819a.736.736 0 00-.661-.804zm3.385.021h-1.709a.795.795 0 00-.795.795v1.709c0 .44.356.795.795.795h1.709a.795.795 0 00.795-.795v-1.709a.795.795 0 00-.795-.795z" fill="#fff"/><path d="M170.228 56.255c-7.36-3.62-24.398-2.572-25.464 14.99-.093 1.464-.381-7.376 0 0-.135-2.622 0 2.277 0 0 0-17.596-12.377-16.259-19.314-15.836-14.906.905-21.632 15.625-15.98 32.274 5.778 17.03 17.968 15.228 32.993 39.364a8.796 8.796 0 001.87 2.318.726.726 0 00.321.203c.491.237.846.051 1.151-.482a23.68 23.68 0 001.616-2.115c11.632-15.033 22.934-21.894 29.922-38.027 6.336-14.551 2.707-27.91-7.115-32.689z" fill="#E281B3" stroke="#282854" stroke-miterlimit="10"/><path d="M94.284 75.56c2.208 2.758 5.499 3.469 8.858 3.799 3.739.361 7.509.265 11.226-.288.364-.05 1.345-.279 1.421-.736.076-.456-.753-.389-1.015-.355a41.447 41.447 0 01-10.084.245c-3.139-.313-6.058-.981-8.113-3.544-.423-.533-2.775.287-2.293.846v.034zm97.576-18.831l-2.699 8.764c-.71 2.301-1.412 4.51-2.961 6.396-2.977 3.63-7.554 5.829-11.936 7.25-.322.11-1.21.398-1.075.846.136.448 1.075.33 1.371.237 4.898-1.6 9.864-3.909 13.392-7.775a16.01 16.01 0 003.341-6.277 4260.47 4260.47 0 003.004-9.729c.236-.778-2.208-.448-2.445.33l.008-.042z" fill="#2C2761"/><circle cx="27.27" cy="88.5" r="26.5" fill="#D3E7F4"/><circle cx="199.27" cy="108.5" r="26.5" fill="#D3E7F4"/><ellipse cx="14.876" cy="75.226" rx="6.5" ry="2.711" transform="rotate(-55.17 14.876 75.226)" fill="#fff"/><ellipse cx="216.547" cy="109.164" rx="6.5" ry="2.711" transform="rotate(89.627 216.547 109.164)" fill="#fff"/></svg>