<svg width="266" height="194" fill="none" xmlns="http://www.w3.org/2000/svg"><path d="M198.574 96.245c10.491-15.085 34.075-9.094 36.096 9.168l.125 1.127a18.253 18.253 0 0013.648 15.683l4.385 1.113c16.476 4.185 17.218 27.316 1.045 32.549-7.654 2.476-12.499 10.112-11.614 18.108 1.86 16.808-18.641 26.825-30.297 14.572l-5.157-5.421a20.183 20.183 0 00-20.835-5.291l-7.118 2.303c-16.09 5.205-29.327-13.38-19.672-27.264 4.593-6.604 3.979-15.627-1.565-21.455-11.717-12.316-.027-32.29 16.449-28.105l4.386 1.114a18.253 18.253 0 0019.477-7.27l.647-.93zM16.12 18.355C13.84 4.58 29.86-4.651 40.636 4.225l.666.547a13.867 13.867 0 0015.741 1.31l2.979-1.716c11.19-6.45 23.85 5.755 17.813 17.174-2.857 5.403-1.45 12.129 3.268 16.015 9.918 8.17 4.059 24.486-8.78 23.988l-5.681-.22a15.335 15.335 0 00-14.151 8.156l-2.657 5.026c-6.006 11.36-23.061 8.25-25.158-4.427-.998-6.03-6.112-10.62-12.22-10.856C-.45 58.722-4.665 41.65 6.526 35.2l2.978-1.717a13.868 13.868 0 006.757-14.278l-.141-.85z" fill="#F1F1FF"/><path d="M165.401 36.38c-15.7.75-26.59-2.64-33.65-5.88-9.21-4.23-11.6-8.08-20.83-10.15-3.79-.85-17.28-3.87-27.63 3.73-7.66 5.61-9.54 14.06-11.89 24.58-1.19 5.34-4.15 19.34.98 35.23 3.46 10.74 8.27 15.8 9.17 20.31 2.41 12.2-.08 12.61 1.36 26 .31 2.92 1.13 22.61 14.66 36 3.85 3.81 12 11.85 18.69 9.61 7.41-2.46 9.82-16.35 10.68-21.36 1.49-8.58-.16-11.86 3-17.85.61-1.14 5.26-9.74 10.91-9.4 6.19.37 10.71 11.29 12.27 18.17 2.57 11.32-1.71 16.85 3.16 24.34 1 1.55 3.65 5.61 8.06 6.64 9.89 2.29 22.09-12.21 27.24-24.57 2.68-6.43 3.69-9 5-21.57 1-10.19 0-15.61 0-21.45 0-15.8 13.17-17.3 3.67-70.36-1.96-10.7-8.44-13.96-11.25-15.63-5.48-3.22-11.24-3.12-19.65-2.19a215.631 215.631 0 00-38.39 7.91" fill="#fff"/><path d="M165.531 35.33c-12.07.55-24.38-1.29-35.19-6.89-5.26-2.72-9.94-6.44-15.65-8.27a48.118 48.118 0 00-13.15-2.17 31.91 31.91 0 00-17.17 4.09 25.78 25.78 0 00-10.72 13.07A95.364 95.364 0 0069.45 51 71.221 71.221 0 0068 66.44a62 62 0 004.3 21.66 76.644 76.644 0 003.92 8.24c1 1.88 2.16 3.72 3 5.69a26.228 26.228 0 011.62 7.24 42.74 42.74 0 01.29 6.87c-.212 4.929-.099 9.866.34 14.78.75 8.14 2.41 16.11 6 23.51a48.905 48.905 0 0010.21 13.84c3.92 3.73 8.43 7.73 13.86 8.73 10.76 2 14.62-11.32 16.24-19.3.46-2.27.87-4.56 1.11-6.86.27-2.66.22-5.35.52-8a20.883 20.883 0 014.93-10.7c1.32-1.61 3.12-3.55 5.29-3.91 2.17-.36 4.1 1.31 5.41 2.82 3.42 4 5.38 9.34 6.56 14.38a38.047 38.047 0 01.92 9.79 74.305 74.305 0 00-.12 7.61A17.908 17.908 0 00159 175c9.75 8 21.57-3.48 27.12-11.06A59.745 59.745 0 00197.18 137a109.362 109.362 0 001.18-19.63c-.16-3.82-.63-7.69-.23-11.51.43-4.19 2-7.84 3.31-11.81 5.61-16.41 3.8-34.09 1.08-50.91-1-5.93-1.94-11.91-6.17-16.49a25.627 25.627 0 00-9.58-6.29c-5.69-2.1-12-1.42-17.91-.76-5.91.66-11.55 1.57-17.26 2.7-7.06 1.39-14 3.15-20.94 5.21-1.76.53-1.26 2.48.52 2a215.662 215.662 0 0137.71-7.8c5.85-.66 12.24-1.39 17.73 1.27a22.513 22.513 0 018.29 6.45c3.85 5.15 4.36 11.93 5.26 18.09A177.298 177.298 0 01202 65.73a79.692 79.692 0 01-1.63 22.06c-1 4.35-2.76 8.44-4 12.71a29.84 29.84 0 00-1.19 5.85c-.36 3.85.12 7.74.27 11.58.17 6.456-.231 12.915-1.2 19.3a50.073 50.073 0 01-3 11.82 63.473 63.473 0 01-8 14.65c-3.28 4.35-7.37 8.81-12.5 10.94a9.051 9.051 0 01-6.41.45 12.367 12.367 0 01-5.82-4.76 16.003 16.003 0 01-2.86-6 27.698 27.698 0 01-.26-7.05 44.723 44.723 0 00-2.06-16.77c-1.57-4.64-3.89-10.14-8.09-13-8.06-5.47-16.22 5.77-18.16 12.63a30.96 30.96 0 00-.83 7 62.715 62.715 0 01-.89 8.19 53.775 53.775 0 01-3.37 12.34c-1.7 3.89-4.53 8.25-9.4 7.28-5.06-1-9.38-5.23-12.94-8.72-7.81-7.67-12.3-17.63-14.23-28.31-.48-2.66-.75-5.33-1-8a79.493 79.493 0 01-.47-8.59c0-2 .16-4.09.21-6.13.051-2.34-.076-4.68-.38-7a25.46 25.46 0 00-1.59-6.9c-2-4.63-4.88-8.82-6.79-13.53a64.25 64.25 0 01-3-36.7C74.41 40.61 76.7 28.38 87 23c5-2.61 10.74-3.24 16.29-2.76 4.437.29 8.793 1.32 12.89 3.05a63.374 63.374 0 017.42 4.24 69.03 69.03 0 008.2 4.34 65.722 65.722 0 0013.9 4.28 82.788 82.788 0 0019.57 1.27c1.63-.07 2.24-2.18.26-2.09z" fill="#2C2761"/><path d="M98 66.33a8.37 8.37 0 012.091-6.93 9.147 9.147 0 013.12-2.28 9.81 9.81 0 013.79-.82 9.938 9.938 0 013.81.81 9.23 9.23 0 013.12 2.28 8.375 8.375 0 012.07 6.94 10.052 10.052 0 00-3.2-5.83 8.843 8.843 0 00-11.67 0 9.999 9.999 0 00-3.13 5.83zm78.581 0a10.002 10.002 0 00-3.19-5.83 8.839 8.839 0 00-11.67 0 10.002 10.002 0 00-3.19 5.83 8.328 8.328 0 012.09-6.94 9.22 9.22 0 013.12-2.28 10 10 0 013.81-.81 9.817 9.817 0 013.82.82 9.157 9.157 0 013.12 2.28 8.37 8.37 0 012.09 6.93z" fill="#2C2761"/><path d="M147.14 76.38c0 6.37-4.53 12.34-9.32 12.34s-9.58-6.24-9.58-12.6c0-4.73 4.63-2.33 9.42-2.33s9.48-2.4 9.48 2.59z" fill="#322435" stroke="#2C2761" stroke-miterlimit="10"/><path d="M143.41 80.5c0 3.88-2.76 7.51-5.68 7.51s-5.83-3.79-5.83-7.67c0-2.88 5.84 2 5.84 2s5.67-4.88 5.67-1.84z" fill="#F1C0DB"/><path d="M143.051 80.59a8.301 8.301 0 01-2.88 6.32 3.574 3.574 0 01-2.9.85 5.251 5.251 0 01-2.67-1.63 8.595 8.595 0 01-1.84-3 8.779 8.779 0 01-.41-1.66 3.659 3.659 0 010-1.51c.13-.44.45-.29.87-.14.6.235 1.174.533 1.71.89a22.574 22.574 0 012.52 1.85c.16.13.49 0 .63-.09a19.99 19.99 0 012.46-1.84c.75-.48 2.52-1.64 2.56 0 0 .21.73.08.72-.19-.06-3-5.48 1.19-6.32 1.92l.63-.09a23.07 23.07 0 00-2.8-2c-.83-.51-2.65-1.61-3.52-.56-.162.211-.24.475-.22.74-.017.74.077 1.478.28 2.19a9.068 9.068 0 001.88 3.58c1.54 1.77 3.79 2.62 6 1.53 2.64-1.32 4-4.45 4.08-7.29-.06-.26-.78-.13-.78.13z" fill="#451F51"/><path d="M100 83c4.418 0 8-1.79 8-4s-3.582-4-8-4-8 1.79-8 4 3.582 4 8 4zm71 0c3.866 0 7-1.79 7-4s-3.134-4-7-4-7 1.79-7 4 3.134 4 7 4z" fill="#FAD2CC"/><path d="M87.26 107.5c2.61 3.26 6.5 4.1 10.47 4.49a55.6 55.6 0 0013.271-.34c.43-.06 1.59-.33 1.68-.87.09-.54-.89-.46-1.2-.42a49.48 49.48 0 01-11.92.29c-3.71-.37-7.16-1.16-9.59-4.19-.5-.63-3.27.34-2.71 1v.04zm103.341-22.26l-1.11 7a44.833 44.833 0 01-1.16 6.21 15.582 15.582 0 01-6.39 8.55c-.42.28-.82.69-.27 1a2.437 2.437 0 002-.3 17.883 17.883 0 007.18-8.71 33.954 33.954 0 001.39-6.53l1.21-7.71c.16-1-2.74-.52-2.89.4l.04.09z" fill="#2C2761"/></svg>