<svg width="24" height="24" fill="none" xmlns="http://www.w3.org/2000/svg"><path d="M11.953 23.906c6.54 0 11.953-5.425 11.953-11.953C23.906 5.414 18.481 0 11.941 0 5.414 0 0 5.414 0 11.953c0 6.527 5.426 11.953 11.953 11.953zm6.2-11.965c0 .27-.106.48-.34.704l-4.079 4.09a.866.866 0 01-.632.257.867.867 0 01-.88-.89c0-.258.106-.48.27-.645l1.5-1.488 1.465-1.219-2.555.094h-6.28c-.528 0-.915-.375-.915-.903 0-.539.387-.914.914-.914h6.281l2.555.106-1.465-1.219-1.5-1.488a1.007 1.007 0 01-.27-.656c0-.504.376-.88.88-.88.257 0 .468.083.632.247l4.079 4.101c.246.246.34.434.34.703z" fill="#1B95ED"/></svg>